<svg xmlns="http://www.w3.org/2000/svg" xmlns:xlink="http://www.w3.org/1999/xlink" width="40" zoomAndPan="magnify" viewBox="0 0 30 30.000001" height="40" preserveAspectRatio="xMidYMid meet" version="1.0"><defs><g/><clipPath id="b29f41320d"><path d="M 0.484375 0 L 29.515625 0 L 29.515625 29.03125 L 0.484375 29.03125 Z M 0.484375 0 " clip-rule="nonzero"/></clipPath><clipPath id="854dc08424"><path d="M 10.179688 8.96875 L 17 8.96875 L 17 15.5 L 10.179688 15.5 Z M 10.179688 8.96875 " clip-rule="nonzero"/></clipPath><clipPath id="07703a0618"><path d="M 13 9 L 19.617188 9 L 19.617188 15.5 L 13 15.5 Z M 13 9 " clip-rule="nonzero"/></clipPath><clipPath id="b3b21dbc3d"><path d="M 14 11 L 19.617188 11 L 19.617188 15 L 14 15 Z M 14 11 " clip-rule="nonzero"/></clipPath></defs><g clip-path="url(#b29f41320d)"><path fill="#ffffff" d="M 0.484375 0 L 29.515625 0 L 29.515625 29.03125 L 0.484375 29.03125 Z M 0.484375 0 " fill-opacity="1" fill-rule="nonzero"/><path fill="#545454" d="M 0.484375 0 L 29.515625 0 L 29.515625 29.03125 L 0.484375 29.03125 Z M 0.484375 0 " fill-opacity="1" fill-rule="nonzero"/></g><g clip-path="url(#854dc08424)"><path fill="#000000" d="M 13.394531 8.96875 C 12.699219 8.96875 12.050781 9.191406 11.523438 9.570312 L 13.140625 9.570312 C 13.257812 9.570312 13.355469 9.664062 13.355469 9.78125 C 13.355469 9.898438 13.257812 9.996094 13.140625 9.996094 L 11.042969 9.996094 C 10.964844 10.078125 10.890625 10.164062 10.820312 10.257812 L 11.71875 10.257812 C 11.835938 10.257812 11.929688 10.351562 11.929688 10.46875 C 11.929688 10.585938 11.835938 10.679688 11.71875 10.679688 L 10.550781 10.679688 C 10.507812 10.765625 10.464844 10.855469 10.429688 10.945312 L 12.042969 10.945312 C 12.160156 10.945312 12.253906 11.039062 12.253906 11.15625 C 12.253906 11.273438 12.160156 11.367188 12.042969 11.367188 L 10.285156 11.367188 C 10.261719 11.453125 10.242188 11.542969 10.226562 11.632812 L 12.84375 11.632812 C 12.960938 11.632812 13.054688 11.726562 13.054688 11.84375 C 13.054688 11.960938 12.960938 12.054688 12.84375 12.054688 L 10.183594 12.054688 C 10.179688 12.097656 10.179688 12.140625 10.179688 12.183594 C 10.179688 12.230469 10.179688 12.273438 10.183594 12.320312 L 11.53125 12.320312 C 11.648438 12.320312 11.742188 12.414062 11.742188 12.53125 C 11.742188 12.648438 11.648438 12.742188 11.53125 12.742188 L 10.230469 12.742188 C 10.246094 12.832031 10.261719 12.917969 10.285156 13.007812 L 12.855469 13.007812 C 12.972656 13.007812 13.066406 13.101562 13.066406 13.21875 C 13.066406 13.335938 12.972656 13.429688 12.855469 13.429688 L 10.429688 13.429688 C 10.46875 13.519531 10.511719 13.609375 10.554688 13.695312 L 12.453125 13.695312 C 12.570312 13.695312 12.667969 13.789062 12.667969 13.90625 C 12.667969 14.023438 12.570312 14.117188 12.453125 14.117188 L 10.828125 14.117188 C 10.894531 14.210938 10.96875 14.296875 11.046875 14.378906 L 13.605469 14.378906 C 13.722656 14.378906 13.816406 14.476562 13.816406 14.59375 C 13.816406 14.710938 13.722656 14.804688 13.605469 14.804688 L 11.535156 14.804688 C 12.058594 15.179688 12.703125 15.398438 13.394531 15.398438 C 13.925781 15.398438 14.429688 15.269531 14.871094 15.042969 C 13.9375 14.433594 13.316406 13.382812 13.316406 12.183594 C 13.316406 10.988281 13.9375 9.933594 14.871094 9.328125 C 14.429688 9.097656 13.925781 8.96875 13.394531 8.96875 Z M 15.835938 14.277344 C 15.847656 14.265625 15.855469 14.253906 15.867188 14.238281 C 15.945312 13.90625 15.964844 13.492188 15.710938 13.234375 C 15.441406 12.960938 14.976562 12.964844 14.613281 13.035156 C 14.839844 13.59375 15.28125 14.042969 15.835938 14.277344 Z M 16.3125 10.835938 C 16.1875 10.566406 16.027344 10.316406 15.835938 10.089844 C 15.335938 10.300781 14.929688 10.6875 14.6875 11.167969 C 15.195312 10.960938 15.765625 10.863281 16.3125 10.835938 Z M 16.3125 10.835938 " fill-opacity="1" fill-rule="evenodd"/></g><g clip-path="url(#07703a0618)"><path fill="#f75d21" d="M 16.71875 9.085938 C 15.007812 9.085938 13.621094 10.472656 13.621094 12.183594 C 13.621094 13.894531 15.007812 15.285156 16.71875 15.285156 C 18.429688 15.285156 19.820312 13.894531 19.820312 12.183594 C 19.820312 10.472656 18.429688 9.085938 16.71875 9.085938 Z M 16.71875 9.609375 C 15.296875 9.609375 14.144531 10.761719 14.144531 12.183594 C 14.144531 13.605469 15.296875 14.757812 16.71875 14.757812 C 18.140625 14.757812 19.292969 13.605469 19.292969 12.183594 C 19.292969 10.761719 18.140625 9.609375 16.71875 9.609375 Z M 16.71875 9.609375 " fill-opacity="1" fill-rule="evenodd"/></g><g clip-path="url(#b3b21dbc3d)"><path fill="#f75d21" d="M 16.71875 14.484375 C 16.519531 14.484375 16.320312 14.449219 16.140625 14.394531 C 16.492188 13.082031 15.667969 12.476562 14.449219 12.757812 C 14.339844 12.390625 14.339844 11.988281 14.453125 11.621094 C 14.886719 11.371094 15.609375 11.125 16.71875 11.125 C 17.832031 11.125 18.554688 11.371094 18.984375 11.621094 C 19.097656 11.988281 19.097656 12.390625 18.988281 12.757812 C 17.769531 12.476562 16.945312 13.082031 17.296875 14.394531 C 17.117188 14.449219 16.917969 14.484375 16.71875 14.484375 Z M 16.71875 11.453125 C 16.316406 11.453125 15.992188 11.78125 15.992188 12.183594 C 15.992188 12.585938 16.316406 12.914062 16.71875 12.914062 C 17.121094 12.914062 17.449219 12.585938 17.449219 12.183594 C 17.449219 11.78125 17.121094 11.453125 16.71875 11.453125 Z M 16.71875 11.453125 " fill-opacity="1" fill-rule="evenodd"/></g><path fill="#f75d21" d="M 16.71875 11.730469 C 16.46875 11.730469 16.265625 11.933594 16.265625 12.183594 C 16.265625 12.433594 16.46875 12.636719 16.71875 12.636719 C 16.96875 12.636719 17.171875 12.433594 17.171875 12.183594 C 17.171875 11.933594 16.96875 11.730469 16.71875 11.730469 Z M 16.71875 11.730469 " fill-opacity="1" fill-rule="evenodd"/><g fill="#000000" fill-opacity="1"><g transform="translate(10.06379, 18.476676)"><g><path d="M 1.125 0 L 0.625 0 L 0.625 -1.578125 L 0.03125 -1.578125 L 0.03125 -1.984375 L 1.71875 -1.984375 L 1.71875 -1.578125 L 1.125 -1.578125 Z M 1.125 0 "/></g></g></g><g fill="#000000" fill-opacity="1"><g transform="translate(11.954326, 18.476676)"><g><path d="M 1.4375 -1.4375 C 1.4375 -1.550781 1.378906 -1.609375 1.265625 -1.609375 L 0.796875 -1.609375 C 0.679688 -1.609375 0.625 -1.550781 0.625 -1.4375 L 0.625 -0.53125 C 0.625 -0.425781 0.679688 -0.375 0.796875 -0.375 L 1.265625 -0.375 C 1.378906 -0.375 1.4375 -0.425781 1.4375 -0.53125 Z M 1.953125 -0.53125 C 1.953125 -0.332031 1.90625 -0.1875 1.8125 -0.09375 C 1.726562 -0.0078125 1.585938 0.03125 1.390625 0.03125 L 0.671875 0.03125 C 0.472656 0.03125 0.328125 -0.0078125 0.234375 -0.09375 C 0.148438 -0.1875 0.109375 -0.332031 0.109375 -0.53125 L 0.109375 -1.4375 C 0.109375 -1.632812 0.148438 -1.78125 0.234375 -1.875 C 0.328125 -1.96875 0.472656 -2.015625 0.671875 -2.015625 L 1.390625 -2.015625 C 1.585938 -2.015625 1.726562 -1.96875 1.8125 -1.875 C 1.90625 -1.78125 1.953125 -1.632812 1.953125 -1.4375 Z M 1.953125 -0.53125 "/></g></g></g><g fill="#000000" fill-opacity="1"><g transform="translate(14.156641, 18.476676)"><g><path d="M 1.125 0 L 0.625 0 L 0.625 -1.578125 L 0.03125 -1.578125 L 0.03125 -1.984375 L 1.71875 -1.984375 L 1.71875 -1.578125 L 1.125 -1.578125 Z M 1.125 0 "/></g></g></g><g fill="#000000" fill-opacity="1"><g transform="translate(16.047177, 18.476676)"><g><path d="M 0.515625 0 L -0.03125 0 L 0.71875 -1.984375 L 1.28125 -1.984375 L 2.03125 0 L 1.484375 0 L 1.359375 -0.359375 L 0.65625 -0.359375 Z M 0.78125 -0.71875 L 1.234375 -0.71875 L 1 -1.390625 Z M 0.78125 -0.71875 "/></g></g></g><g fill="#000000" fill-opacity="1"><g transform="translate(18.192805, 18.476676)"><g><path d="M 0.671875 -0.390625 L 1.71875 -0.390625 L 1.71875 0 L 0.171875 0 L 0.171875 -1.984375 L 0.671875 -1.984375 Z M 0.671875 -0.390625 "/></g></g></g><g fill="#000000" fill-opacity="1"><g transform="translate(8.777932, 22.438606)"><g><path d="M 0.109375 -0.40625 C 0.628906 -0.382812 0.976562 -0.375 1.15625 -0.375 C 1.195312 -0.375 1.226562 -0.382812 1.25 -0.40625 C 1.28125 -0.425781 1.296875 -0.460938 1.296875 -0.515625 L 1.296875 -0.765625 L 0.65625 -0.765625 C 0.457031 -0.765625 0.3125 -0.804688 0.21875 -0.890625 C 0.125 -0.984375 0.078125 -1.128906 0.078125 -1.328125 L 0.078125 -1.40625 C 0.078125 -1.613281 0.125 -1.757812 0.21875 -1.84375 C 0.3125 -1.9375 0.457031 -1.984375 0.65625 -1.984375 L 1.640625 -1.984375 L 1.640625 -1.578125 L 0.765625 -1.578125 C 0.648438 -1.578125 0.59375 -1.519531 0.59375 -1.40625 L 0.59375 -1.359375 C 0.59375 -1.242188 0.648438 -1.1875 0.765625 -1.1875 L 1.265625 -1.1875 C 1.453125 -1.1875 1.585938 -1.140625 1.671875 -1.046875 C 1.765625 -0.960938 1.8125 -0.832031 1.8125 -0.65625 L 1.8125 -0.515625 C 1.8125 -0.328125 1.765625 -0.1875 1.671875 -0.09375 C 1.585938 -0.0078125 1.453125 0.03125 1.265625 0.03125 C 1.171875 0.03125 1.070312 0.0234375 0.96875 0.015625 L 0.703125 0.015625 C 0.515625 0.00390625 0.316406 -0.0078125 0.109375 -0.03125 Z M 0.109375 -0.40625 "/></g></g></g><g fill="#000000" fill-opacity="1"><g transform="translate(10.810186, 22.438606)"><g><path d="M 1.4375 -1.984375 L 1.953125 -1.984375 L 1.953125 -0.53125 C 1.953125 -0.332031 1.90625 -0.1875 1.8125 -0.09375 C 1.726562 -0.0078125 1.585938 0.03125 1.390625 0.03125 L 0.734375 0.03125 C 0.535156 0.03125 0.390625 -0.0078125 0.296875 -0.09375 C 0.210938 -0.1875 0.171875 -0.332031 0.171875 -0.53125 L 0.171875 -1.984375 L 0.671875 -1.984375 L 0.671875 -0.53125 C 0.671875 -0.425781 0.726562 -0.375 0.84375 -0.375 L 1.265625 -0.375 C 1.378906 -0.375 1.4375 -0.425781 1.4375 -0.53125 Z M 1.4375 -1.984375 "/></g></g></g><g fill="#000000" fill-opacity="1"><g transform="translate(13.069189, 22.438606)"><g><path d="M 0.171875 -1.984375 L 1.359375 -1.984375 C 1.554688 -1.984375 1.695312 -1.9375 1.78125 -1.84375 C 1.875 -1.757812 1.921875 -1.613281 1.921875 -1.40625 L 1.921875 -1.15625 C 1.921875 -1 1.894531 -0.878906 1.84375 -0.796875 C 1.789062 -0.710938 1.707031 -0.65625 1.59375 -0.625 L 1.953125 0 L 1.40625 0 L 1.078125 -0.59375 L 0.671875 -0.59375 L 0.671875 0 L 0.171875 0 Z M 1.40625 -1.40625 C 1.40625 -1.519531 1.351562 -1.578125 1.25 -1.578125 L 0.671875 -1.578125 L 0.671875 -0.984375 L 1.25 -0.984375 C 1.351562 -0.984375 1.40625 -1.039062 1.40625 -1.15625 Z M 1.40625 -1.40625 "/></g></g></g><g fill="#000000" fill-opacity="1"><g transform="translate(15.243161, 22.438606)"><g><path d="M 1 -0.59375 L 1.484375 -1.984375 L 2.03125 -1.984375 L 1.28125 0 L 0.71875 0 L -0.03125 -1.984375 L 0.515625 -1.984375 Z M 1 -0.59375 "/></g></g></g><g fill="#000000" fill-opacity="1"><g transform="translate(17.38879, 22.438606)"><g><path d="M 1.734375 0 L 0.171875 0 L 0.171875 -1.984375 L 1.734375 -1.984375 L 1.734375 -1.578125 L 0.671875 -1.578125 L 0.671875 -1.203125 L 1.515625 -1.203125 L 1.515625 -0.8125 L 0.671875 -0.8125 L 0.671875 -0.390625 L 1.734375 -0.390625 Z M 1.734375 0 "/></g></g></g><g fill="#000000" fill-opacity="1"><g transform="translate(19.32184, 22.438606)"><g><path d="M -0.0625 -1.984375 L 0.484375 -1.984375 L 0.953125 -1.015625 L 1.40625 -1.984375 L 1.953125 -1.984375 L 1.203125 -0.515625 L 1.203125 0 L 0.6875 0 L 0.6875 -0.515625 Z M -0.0625 -1.984375 "/></g></g></g><g fill="#000000" fill-opacity="1"><g transform="translate(9.183885, 19.838814)"><g><path d="M 0.15625 0 L -0.015625 0 L 0.21875 -0.59375 L 0.375 -0.59375 L 0.609375 0 L 0.453125 0 L 0.40625 -0.109375 L 0.203125 -0.109375 Z M 0.234375 -0.21875 L 0.375 -0.21875 L 0.296875 -0.40625 Z M 0.234375 -0.21875 "/></g></g></g><g fill="#000000" fill-opacity="1"><g transform="translate(10.030575, 19.838814)"><g><path d="M 0.4375 -0.59375 L 0.578125 -0.59375 L 0.578125 -0.15625 C 0.578125 -0.09375 0.5625 -0.046875 0.53125 -0.015625 C 0.507812 0.00390625 0.46875 0.015625 0.40625 0.015625 L 0.21875 0.015625 C 0.15625 0.015625 0.109375 0.00390625 0.078125 -0.015625 C 0.0546875 -0.046875 0.046875 -0.09375 0.046875 -0.15625 L 0.046875 -0.59375 L 0.203125 -0.59375 L 0.203125 -0.15625 C 0.203125 -0.125 0.21875 -0.109375 0.25 -0.109375 L 0.375 -0.109375 C 0.414062 -0.109375 0.4375 -0.125 0.4375 -0.15625 Z M 0.4375 -0.59375 "/></g></g></g><g fill="#000000" fill-opacity="1"><g transform="translate(10.911023, 19.838814)"><g><path d="M 0.34375 0 L 0.1875 0 L 0.1875 -0.46875 L 0.015625 -0.46875 L 0.015625 -0.59375 L 0.515625 -0.59375 L 0.515625 -0.46875 L 0.34375 -0.46875 Z M 0.34375 0 "/></g></g></g><g fill="#000000" fill-opacity="1"><g transform="translate(11.681756, 19.838814)"><g><path d="M 0.4375 -0.4375 C 0.4375 -0.457031 0.414062 -0.46875 0.375 -0.46875 L 0.234375 -0.46875 C 0.203125 -0.46875 0.1875 -0.457031 0.1875 -0.4375 L 0.1875 -0.15625 C 0.1875 -0.125 0.203125 -0.109375 0.234375 -0.109375 L 0.375 -0.109375 C 0.414062 -0.109375 0.4375 -0.125 0.4375 -0.15625 Z M 0.578125 -0.15625 C 0.578125 -0.09375 0.5625 -0.046875 0.53125 -0.015625 C 0.507812 0.00390625 0.46875 0.015625 0.40625 0.015625 L 0.203125 0.015625 C 0.148438 0.015625 0.109375 0.00390625 0.078125 -0.015625 C 0.0546875 -0.046875 0.046875 -0.09375 0.046875 -0.15625 L 0.046875 -0.4375 C 0.046875 -0.488281 0.0546875 -0.523438 0.078125 -0.546875 C 0.109375 -0.578125 0.148438 -0.59375 0.203125 -0.59375 L 0.40625 -0.59375 C 0.46875 -0.59375 0.507812 -0.578125 0.53125 -0.546875 C 0.5625 -0.523438 0.578125 -0.488281 0.578125 -0.4375 Z M 0.578125 -0.15625 "/></g></g></g><g fill="#000000" fill-opacity="1"><g transform="translate(12.545325, 19.838814)"><g/></g></g><g fill="#000000" fill-opacity="1"><g transform="translate(13.045992, 19.838814)"><g><path d="M 0.375 -0.59375 C 0.4375 -0.59375 0.484375 -0.570312 0.515625 -0.53125 C 0.554688 -0.5 0.578125 -0.453125 0.578125 -0.390625 L 0.578125 -0.203125 C 0.578125 -0.128906 0.554688 -0.078125 0.515625 -0.046875 C 0.484375 -0.015625 0.4375 0 0.375 0 L 0.046875 0 L 0.046875 -0.59375 Z M 0.421875 -0.390625 C 0.421875 -0.441406 0.394531 -0.46875 0.34375 -0.46875 L 0.203125 -0.46875 L 0.203125 -0.125 L 0.34375 -0.125 C 0.394531 -0.125 0.421875 -0.148438 0.421875 -0.203125 Z M 0.421875 -0.390625 "/></g></g></g><g fill="#000000" fill-opacity="1"><g transform="translate(13.901121, 19.838814)"><g><path d="M 0.515625 0 L 0.046875 0 L 0.046875 -0.59375 L 0.515625 -0.59375 L 0.515625 -0.46875 L 0.203125 -0.46875 L 0.203125 -0.359375 L 0.453125 -0.359375 L 0.453125 -0.234375 L 0.203125 -0.234375 L 0.203125 -0.125 L 0.515625 -0.125 Z M 0.515625 0 "/></g></g></g><g fill="#000000" fill-opacity="1"><g transform="translate(14.684514, 19.838814)"><g><path d="M 0.15625 0 L -0.015625 0 L 0.21875 -0.59375 L 0.375 -0.59375 L 0.609375 0 L 0.453125 0 L 0.40625 -0.109375 L 0.203125 -0.109375 Z M 0.234375 -0.21875 L 0.375 -0.21875 L 0.296875 -0.40625 Z M 0.234375 -0.21875 "/></g></g></g><g fill="#000000" fill-opacity="1"><g transform="translate(15.531203, 19.838814)"><g><path d="M 0.203125 -0.125 L 0.515625 -0.125 L 0.515625 0 L 0.046875 0 L 0.046875 -0.59375 L 0.203125 -0.59375 Z M 0.203125 -0.125 "/></g></g></g><g fill="#000000" fill-opacity="1"><g transform="translate(16.297717, 19.838814)"><g><path d="M 0.515625 0 L 0.046875 0 L 0.046875 -0.59375 L 0.515625 -0.59375 L 0.515625 -0.46875 L 0.203125 -0.46875 L 0.203125 -0.359375 L 0.453125 -0.359375 L 0.453125 -0.234375 L 0.203125 -0.234375 L 0.203125 -0.125 L 0.515625 -0.125 Z M 0.515625 0 "/></g></g></g><g fill="#000000" fill-opacity="1"><g transform="translate(17.08111, 19.838814)"><g><path d="M 0.046875 -0.59375 L 0.40625 -0.59375 C 0.457031 -0.59375 0.5 -0.578125 0.53125 -0.546875 C 0.5625 -0.523438 0.578125 -0.484375 0.578125 -0.421875 L 0.578125 -0.34375 C 0.578125 -0.300781 0.566406 -0.265625 0.546875 -0.234375 C 0.535156 -0.210938 0.507812 -0.195312 0.46875 -0.1875 L 0.578125 0 L 0.421875 0 L 0.3125 -0.171875 L 0.203125 -0.171875 L 0.203125 0 L 0.046875 0 Z M 0.421875 -0.421875 C 0.421875 -0.453125 0.40625 -0.46875 0.375 -0.46875 L 0.203125 -0.46875 L 0.203125 -0.296875 L 0.375 -0.296875 C 0.40625 -0.296875 0.421875 -0.3125 0.421875 -0.34375 Z M 0.421875 -0.421875 "/></g></g></g><g fill="#000000" fill-opacity="1"><g transform="translate(17.936239, 19.838814)"><g><path d="M 0.03125 -0.125 C 0.1875 -0.113281 0.289062 -0.109375 0.34375 -0.109375 C 0.363281 -0.109375 0.375 -0.109375 0.375 -0.109375 C 0.375 -0.117188 0.375 -0.132812 0.375 -0.15625 L 0.375 -0.21875 L 0.203125 -0.21875 C 0.140625 -0.21875 0.09375 -0.226562 0.0625 -0.25 C 0.0390625 -0.28125 0.03125 -0.328125 0.03125 -0.390625 L 0.03125 -0.421875 C 0.03125 -0.484375 0.0390625 -0.523438 0.0625 -0.546875 C 0.09375 -0.578125 0.140625 -0.59375 0.203125 -0.59375 L 0.484375 -0.59375 L 0.484375 -0.46875 L 0.21875 -0.46875 C 0.1875 -0.46875 0.171875 -0.453125 0.171875 -0.421875 L 0.171875 -0.40625 C 0.171875 -0.375 0.1875 -0.359375 0.21875 -0.359375 L 0.375 -0.359375 C 0.4375 -0.359375 0.476562 -0.34375 0.5 -0.3125 C 0.53125 -0.289062 0.546875 -0.253906 0.546875 -0.203125 L 0.546875 -0.15625 C 0.546875 -0.09375 0.53125 -0.046875 0.5 -0.015625 C 0.476562 0.00390625 0.4375 0.015625 0.375 0.015625 C 0.351562 0.015625 0.328125 0.015625 0.296875 0.015625 L 0.21875 0 C 0.15625 0 0.09375 -0.00390625 0.03125 -0.015625 Z M 0.03125 -0.125 "/></g></g></g><g fill="#000000" fill-opacity="1"><g transform="translate(18.74917, 19.838814)"><g><path d="M 0.5625 0 L 0.40625 0 L 0.40625 -0.234375 L 0.203125 -0.234375 L 0.203125 0 L 0.046875 0 L 0.046875 -0.59375 L 0.203125 -0.59375 L 0.203125 -0.359375 L 0.40625 -0.359375 L 0.40625 -0.59375 L 0.5625 -0.59375 Z M 0.5625 0 "/></g></g></g><g fill="#000000" fill-opacity="1"><g transform="translate(19.61274, 19.838814)"><g><path d="M 0.328125 0 L 0.03125 0 L 0.03125 -0.125 L 0.109375 -0.125 L 0.109375 -0.46875 L 0.03125 -0.46875 L 0.03125 -0.59375 L 0.328125 -0.59375 L 0.328125 -0.46875 L 0.25 -0.46875 L 0.25 -0.125 L 0.328125 -0.125 Z M 0.328125 0 "/></g></g></g><g fill="#000000" fill-opacity="1"><g transform="translate(20.214682, 19.838814)"><g><path d="M 0.046875 -0.59375 L 0.40625 -0.59375 C 0.457031 -0.59375 0.5 -0.578125 0.53125 -0.546875 C 0.5625 -0.523438 0.578125 -0.484375 0.578125 -0.421875 L 0.578125 -0.34375 C 0.578125 -0.28125 0.5625 -0.234375 0.53125 -0.203125 C 0.5 -0.179688 0.457031 -0.171875 0.40625 -0.171875 L 0.203125 -0.171875 L 0.203125 0 L 0.046875 0 Z M 0.421875 -0.421875 C 0.421875 -0.453125 0.40625 -0.46875 0.375 -0.46875 L 0.203125 -0.46875 L 0.203125 -0.296875 L 0.375 -0.296875 C 0.40625 -0.296875 0.421875 -0.3125 0.421875 -0.34375 Z M 0.421875 -0.421875 "/></g></g></g></svg>